<mxfile host="Electron" agent="Mozilla/5.0 (Windows NT 10.0; Win64; x64) AppleWebKit/537.36 (KHTML, like Gecko) draw.io/26.2.15 Chrome/134.0.6998.205 Electron/35.2.1 Safari/537.36" version="26.2.15">
  <diagram name="第 1 页" id="l4DT-7xry1ahDOT3vNn5">
    <mxGraphModel dx="1200" dy="815" grid="1" gridSize="10" guides="1" tooltips="1" connect="1" arrows="1" fold="1" page="1" pageScale="1" pageWidth="827" pageHeight="1169" math="0" shadow="0">
      <root>
        <mxCell id="0" />
        <mxCell id="1" parent="0" />
        <mxCell id="knWO7fLg4ITbGfpKzFss-1" value="" style="swimlane;startSize=0;" parent="1" vertex="1">
          <mxGeometry x="300" y="210" width="430" height="560" as="geometry" />
        </mxCell>
        <mxCell id="knWO7fLg4ITbGfpKzFss-4" value="数据报表子系统" style="text;html=1;align=center;verticalAlign=middle;resizable=0;points=[];autosize=1;strokeColor=none;fillColor=none;" parent="knWO7fLg4ITbGfpKzFss-1" vertex="1">
          <mxGeometry x="30" y="28" width="110" height="30" as="geometry" />
        </mxCell>
        <mxCell id="knWO7fLg4ITbGfpKzFss-5" value="报表查看" style="ellipse;whiteSpace=wrap;html=1;" parent="knWO7fLg4ITbGfpKzFss-1" vertex="1">
          <mxGeometry x="40" y="130" width="140" height="70" as="geometry" />
        </mxCell>
        <mxCell id="knWO7fLg4ITbGfpKzFss-6" value="报表管理" style="ellipse;whiteSpace=wrap;html=1;" parent="knWO7fLg4ITbGfpKzFss-1" vertex="1">
          <mxGeometry x="40" y="380" width="140" height="70" as="geometry" />
        </mxCell>
        <mxCell id="knWO7fLg4ITbGfpKzFss-7" value="模板管理" style="ellipse;whiteSpace=wrap;html=1;" parent="knWO7fLg4ITbGfpKzFss-1" vertex="1">
          <mxGeometry x="260" y="295" width="140" height="70" as="geometry" />
        </mxCell>
        <mxCell id="knWO7fLg4ITbGfpKzFss-8" value="生成报表" style="ellipse;whiteSpace=wrap;html=1;" parent="knWO7fLg4ITbGfpKzFss-1" vertex="1">
          <mxGeometry x="260" y="430" width="140" height="70" as="geometry" />
        </mxCell>
        <mxCell id="knWO7fLg4ITbGfpKzFss-9" value="导出报表" style="ellipse;whiteSpace=wrap;html=1;" parent="knWO7fLg4ITbGfpKzFss-1" vertex="1">
          <mxGeometry x="240" y="150" width="140" height="70" as="geometry" />
        </mxCell>
        <mxCell id="knWO7fLg4ITbGfpKzFss-12" value="&amp;lt;&amp;lt;include&amp;gt;&amp;gt;" style="html=1;verticalAlign=bottom;labelBackgroundColor=none;endArrow=open;endFill=0;dashed=1;rounded=0;exitX=0.5;exitY=0;exitDx=0;exitDy=0;entryX=0.5;entryY=1;entryDx=0;entryDy=0;" parent="knWO7fLg4ITbGfpKzFss-1" source="knWO7fLg4ITbGfpKzFss-6" target="knWO7fLg4ITbGfpKzFss-5" edge="1">
          <mxGeometry width="160" relative="1" as="geometry">
            <mxPoint x="40" y="210" as="sourcePoint" />
            <mxPoint x="200" y="210" as="targetPoint" />
          </mxGeometry>
        </mxCell>
        <mxCell id="knWO7fLg4ITbGfpKzFss-13" value="&amp;lt;&amp;lt;include&amp;gt;&amp;gt;" style="html=1;verticalAlign=bottom;labelBackgroundColor=none;endArrow=open;endFill=0;dashed=1;rounded=0;exitX=1;exitY=0;exitDx=0;exitDy=0;entryX=0;entryY=0.5;entryDx=0;entryDy=0;" parent="knWO7fLg4ITbGfpKzFss-1" source="knWO7fLg4ITbGfpKzFss-6" target="knWO7fLg4ITbGfpKzFss-9" edge="1">
          <mxGeometry width="160" relative="1" as="geometry">
            <mxPoint x="40" y="210" as="sourcePoint" />
            <mxPoint x="200" y="210" as="targetPoint" />
          </mxGeometry>
        </mxCell>
        <mxCell id="knWO7fLg4ITbGfpKzFss-14" value="&amp;lt;&amp;lt;include&amp;gt;&amp;gt;" style="html=1;verticalAlign=bottom;labelBackgroundColor=none;endArrow=open;endFill=0;dashed=1;rounded=0;exitX=1;exitY=0.5;exitDx=0;exitDy=0;entryX=0;entryY=0.5;entryDx=0;entryDy=0;" parent="knWO7fLg4ITbGfpKzFss-1" source="knWO7fLg4ITbGfpKzFss-6" target="knWO7fLg4ITbGfpKzFss-7" edge="1">
          <mxGeometry width="160" relative="1" as="geometry">
            <mxPoint x="40" y="210" as="sourcePoint" />
            <mxPoint x="200" y="210" as="targetPoint" />
          </mxGeometry>
        </mxCell>
        <mxCell id="knWO7fLg4ITbGfpKzFss-15" value="&amp;lt;&amp;lt;include&amp;gt;&amp;gt;" style="html=1;verticalAlign=bottom;labelBackgroundColor=none;endArrow=open;endFill=0;dashed=1;rounded=0;exitX=1;exitY=1;exitDx=0;exitDy=0;" parent="knWO7fLg4ITbGfpKzFss-1" source="knWO7fLg4ITbGfpKzFss-6" target="knWO7fLg4ITbGfpKzFss-8" edge="1">
          <mxGeometry width="160" relative="1" as="geometry">
            <mxPoint x="40" y="210" as="sourcePoint" />
            <mxPoint x="200" y="210" as="targetPoint" />
          </mxGeometry>
        </mxCell>
        <mxCell id="LVLbP65x-7GSIV_pxvCl-1" value="数据源管理" style="ellipse;whiteSpace=wrap;html=1;" vertex="1" parent="knWO7fLg4ITbGfpKzFss-1">
          <mxGeometry x="130" y="480" width="140" height="70" as="geometry" />
        </mxCell>
        <mxCell id="LVLbP65x-7GSIV_pxvCl-2" value="&amp;lt;&amp;lt;include&amp;gt;&amp;gt;" style="html=1;verticalAlign=bottom;labelBackgroundColor=none;endArrow=open;endFill=0;dashed=1;rounded=0;exitX=0.5;exitY=1;exitDx=0;exitDy=0;entryX=0.5;entryY=0;entryDx=0;entryDy=0;" edge="1" parent="knWO7fLg4ITbGfpKzFss-1" source="knWO7fLg4ITbGfpKzFss-6" target="LVLbP65x-7GSIV_pxvCl-1">
          <mxGeometry width="160" relative="1" as="geometry">
            <mxPoint x="-40" y="480" as="sourcePoint" />
            <mxPoint x="120" y="480" as="targetPoint" />
          </mxGeometry>
        </mxCell>
        <mxCell id="knWO7fLg4ITbGfpKzFss-2" value="值班员" style="shape=umlActor;verticalLabelPosition=bottom;verticalAlign=top;html=1;outlineConnect=0;" parent="1" vertex="1">
          <mxGeometry x="180" y="340" width="30" height="60" as="geometry" />
        </mxCell>
        <mxCell id="knWO7fLg4ITbGfpKzFss-3" value="管理员" style="shape=umlActor;verticalLabelPosition=bottom;verticalAlign=top;html=1;outlineConnect=0;" parent="1" vertex="1">
          <mxGeometry x="180" y="600" width="30" height="60" as="geometry" />
        </mxCell>
        <mxCell id="knWO7fLg4ITbGfpKzFss-10" value="" style="endArrow=classic;html=1;rounded=0;exitX=0.5;exitY=0.5;exitDx=0;exitDy=0;exitPerimeter=0;entryX=0;entryY=0.5;entryDx=0;entryDy=0;" parent="1" source="knWO7fLg4ITbGfpKzFss-3" target="knWO7fLg4ITbGfpKzFss-6" edge="1">
          <mxGeometry width="50" height="50" relative="1" as="geometry">
            <mxPoint x="230" y="610" as="sourcePoint" />
            <mxPoint x="280" y="560" as="targetPoint" />
          </mxGeometry>
        </mxCell>
        <mxCell id="knWO7fLg4ITbGfpKzFss-11" value="" style="endArrow=classic;html=1;rounded=0;exitX=0.5;exitY=0.5;exitDx=0;exitDy=0;exitPerimeter=0;entryX=0;entryY=0.5;entryDx=0;entryDy=0;" parent="1" source="knWO7fLg4ITbGfpKzFss-2" target="knWO7fLg4ITbGfpKzFss-5" edge="1">
          <mxGeometry width="50" height="50" relative="1" as="geometry">
            <mxPoint x="390" y="450" as="sourcePoint" />
            <mxPoint x="440" y="400" as="targetPoint" />
          </mxGeometry>
        </mxCell>
      </root>
    </mxGraphModel>
  </diagram>
</mxfile>
